# xmcd
#
# Track frame offsets: 
#        150
#        15627
#        31575
#        43620
#        55835
#        69800
#        83037
#        99705
#        112575
#        132552
#        147575
#        159607
#        174905
#        189937
#        202457
#        216475
#        236425
#        248967
#        259362
#        272700
#
# Disc length: 3861 seconds
#
# Revision: 3
# Processed by: cddbd v1.5.1PL0 Copyright (c) Steve Scherf et al.
# Submitted via: ExactAudioCopy v0.95a5
#
DISCID=1e0f1314
DTITLE=鄧麗君 - 不明
DYEAR=1900
DGENRE=
TTITLE0=你怎麼說
TTITLE1=甜蜜蜜
TTITLE2=小城故事
TTITLE3=水長流
TTITLE4=詩意
TTITLE5=又見炊煙
TTITLE6=香港之夜
TTITLE7=雲河
TTITLE8=恰似你的溫柔
TTITLE9=夜來香
TTITLE10=假如夢兒是真的
TTITLE11=何日君再來
TTITLE12=原鄉情濃
TTITLE13=獨上西樓
TTITLE14=胭脂淚\
TTITLE15=問自己
TTITLE16=人約黃昏後
TTITLE17=春風滿小城
TTITLE18=儂情萬縷\
TTITLE19=在水一方
EXTD=
EXTT0=
EXTT1=
EXTT2=
EXTT3=
EXTT4=
EXTT5=
EXTT6=
EXTT7=
EXTT8=
EXTT9=
EXTT10=
EXTT11=
EXTT12=
EXTT13=
EXTT14=
EXTT15=
EXTT16=
EXTT17=
EXTT18=
EXTT19=
PLAYORDER=
